<svg xmlns="http://www.w3.org/2000/svg" width="2232pt" height="432pt" viewBox="0 0 2232 432"><path fill="#004786" opacity="1.00" d=" M 3.79 2.67 C 52.20 2.66 100.61 2.67 149.03 2.67 C 170.74 2.68 192.74 2.30 214.03 7.18 C 226.76 10.19 239.54 15.58 248.36 25.56 C 261.30 39.74 266.65 60.25 262.66 78.98 C 260.05 91.78 252.78 103.38 242.99 111.94 C 233.06 120.94 220.39 125.99 207.96 130.47 C 222.81 134.44 238.22 138.12 251.05 146.99 C 263.10 154.81 272.03 167.23 275.48 181.19 C 279.40 197.03 278.29 214.16 272.18 229.31 C 266.94 242.21 257.29 253.48 244.77 259.77 C 230.03 267.40 213.41 270.28 197.06 271.85 C 174.43 274.00 151.68 273.31 128.99 273.43 C 87.25 273.43 45.52 273.44 3.78 273.43 C 3.78 261.65 3.78 249.86 3.78 238.08 C 12.80 237.96 21.85 238.46 30.82 237.37 C 34.67 236.83 39.01 235.73 41.19 232.20 C 43.35 228.57 43.44 224.18 43.57 220.08 C 43.58 165.71 43.56 111.34 43.58 56.97 C 43.46 52.57 43.46 47.85 41.16 43.94 C 39.01 40.40 34.68 39.26 30.84 38.72 C 21.86 37.63 12.79 38.06 3.77 37.96 C 3.80 26.20 3.77 14.44 3.79 2.67 M 119.15 37.94 C 119.07 63.80 119.14 89.66 119.11 115.52 C 130.39 115.36 141.72 116.04 152.94 114.56 C 162.49 113.28 172.47 110.43 179.45 103.40 C 185.84 97.02 188.35 87.82 188.75 79.02 C 189.16 70.10 188.31 60.52 183.12 52.95 C 178.32 45.89 170.16 42.07 162.06 40.23 C 147.99 37.04 133.45 38.19 119.15 37.94 M 119.12 149.62 C 119.11 179.11 119.11 208.59 119.11 238.08 C 134.26 237.83 149.55 238.96 164.56 236.35 C 173.35 234.80 182.36 231.28 188.10 224.13 C 195.11 215.43 197.75 203.98 197.77 193.00 C 197.80 183.53 195.92 173.57 189.93 165.98 C 184.12 158.48 175.08 154.32 166.03 152.22 C 150.66 148.56 134.76 149.88 119.12 149.62 Z"></path><path fill="#ce1d00" opacity="1.00" d=" M 292.07 22.14 C 934.27 22.15 1576.47 22.13 2218.67 22.15 C 2218.65 31.80 2218.69 41.46 2218.65 51.11 C 1576.46 51.09 934.27 51.11 292.08 51.10 C 292.06 41.45 292.08 31.79 292.07 22.14 Z"></path><path fill="#004786" opacity="1.00" d=" M 292.09 83.84 C 328.75 83.85 365.41 83.83 402.08 83.85 C 402.10 92.09 402.06 100.33 402.10 108.57 C 395.03 108.76 387.91 108.21 380.89 109.26 C 378.28 109.65 375.43 110.70 374.19 113.21 C 372.82 115.92 372.82 119.05 372.74 122.02 C 372.77 164.24 372.72 206.46 372.76 248.68 C 387.63 248.33 402.74 249.89 417.39 246.61 C 425.37 244.90 432.84 240.02 436.56 232.60 C 442.27 221.34 443.24 208.48 444.62 196.13 C 452.96 196.13 461.30 196.13 469.65 196.14 C 469.64 221.90 469.66 247.66 469.64 273.43 C 410.45 273.42 351.26 273.42 292.08 273.43 C 292.07 265.18 292.07 256.93 292.08 248.68 C 299.56 248.44 307.27 249.40 314.57 247.34 C 318.94 246.06 319.90 241.00 319.85 237.05 C 319.90 198.35 319.87 159.65 319.86 120.95 C 319.87 116.94 319.32 111.66 314.92 110.10 C 307.55 107.83 299.68 108.85 292.08 108.61 C 292.07 100.35 292.06 92.10 292.09 83.84 Z"></path><path fill="#004786" opacity="1.00" d=" M 468.49 107.98 C 468.50 99.93 468.48 91.89 468.51 83.85 C 504.31 83.84 540.10 83.84 575.90 83.85 C 575.93 91.89 575.92 99.94 575.91 107.99 C 568.55 107.89 560.76 106.87 553.82 109.92 C 550.21 111.45 548.14 115.22 547.79 119.00 C 547.05 125.30 547.27 131.66 547.20 138.00 C 547.24 164.02 547.10 190.05 547.27 216.08 C 547.61 225.12 548.02 235.35 554.67 242.28 C 561.56 249.70 572.27 251.54 581.97 251.23 C 591.00 250.89 600.56 249.41 608.00 243.91 C 612.31 240.43 615.75 235.69 617.06 230.26 C 618.75 223.33 618.45 216.14 618.50 209.07 C 618.50 189.06 618.50 169.06 618.50 149.05 C 618.35 139.65 618.94 130.18 617.67 120.84 C 617.08 116.49 615.30 111.60 610.88 109.87 C 604.60 107.40 597.66 108.24 591.07 108.12 C 590.70 100.04 590.99 91.94 590.91 83.85 C 619.14 83.83 647.37 83.86 675.61 83.83 C 675.62 91.91 675.63 99.99 675.60 108.07 C 668.54 108.53 661.18 108.04 654.43 110.49 C 649.78 112.21 649.62 117.86 649.50 122.03 C 648.93 148.02 649.35 174.01 649.22 200.00 C 649.01 213.30 650.35 227.05 645.78 239.83 C 641.62 252.56 632.04 263.14 620.18 269.21 C 603.59 277.82 584.44 279.64 566.03 279.35 C 548.34 278.90 529.87 275.26 515.52 264.30 C 508.71 259.12 502.78 252.51 499.37 244.58 C 495.96 236.87 495.00 228.36 494.90 220.02 C 494.83 190.32 494.97 160.62 494.83 130.92 C 494.42 124.25 494.46 116.56 489.55 111.41 C 483.75 106.42 475.51 108.06 468.49 107.98 Z"></path><path fill="#004786" opacity="1.00" d=" M 686.13 83.84 C 719.26 83.85 752.40 83.84 785.53 83.85 C 796.64 122.76 807.67 161.70 818.79 200.62 C 830.24 161.69 841.67 122.76 853.17 83.84 C 886.03 83.85 918.88 83.84 951.73 83.85 C 951.75 92.20 951.73 100.55 951.74 108.91 C 944.57 109.12 937.18 108.25 930.18 110.21 C 925.52 111.48 924.70 116.96 924.77 121.07 C 924.78 159.71 924.76 198.35 924.78 236.99 C 924.78 240.81 925.54 245.72 929.69 247.19 C 936.79 249.46 944.40 248.39 951.74 248.66 C 951.74 256.91 951.74 265.17 951.74 273.42 C 918.68 273.43 885.63 273.42 852.58 273.42 C 852.57 265.17 852.57 256.91 852.58 248.66 C 858.67 248.47 865.09 249.25 870.89 246.95 C 875.02 245.06 875.23 239.91 875.30 235.99 C 875.29 195.37 875.33 154.75 875.28 114.13 C 859.68 167.23 844.06 220.33 828.44 273.43 C 815.64 273.41 802.85 273.44 790.05 273.41 C 774.86 220.21 759.55 167.03 744.38 113.82 C 744.38 154.89 744.38 195.95 744.38 237.02 C 744.42 240.73 745.06 245.41 748.97 247.02 C 754.81 249.20 761.22 248.49 767.35 248.66 C 767.35 256.91 767.35 265.17 767.35 273.42 C 740.27 273.43 713.20 273.42 686.12 273.43 C 686.11 265.17 686.12 256.91 686.12 248.66 C 692.17 248.58 698.27 248.93 704.29 248.12 C 706.93 247.72 709.89 246.82 711.27 244.32 C 712.64 241.79 712.71 238.82 712.79 236.02 C 712.78 197.69 712.80 159.37 712.78 121.04 C 712.79 117.05 712.14 111.80 707.72 110.33 C 700.74 108.20 693.30 109.14 686.12 108.91 C 686.12 100.56 686.10 92.20 686.13 83.84 Z"></path><path fill="#004786" opacity="1.00" d=" M 962.62 83.85 C 1025.04 83.84 1087.45 83.84 1149.87 83.85 C 1149.89 107.93 1149.90 132.01 1149.86 156.10 C 1141.52 156.10 1133.19 156.10 1124.87 156.09 C 1122.74 144.04 1121.35 131.13 1114.23 120.79 C 1108.35 112.43 1097.66 109.93 1088.06 109.17 C 1073.17 108.05 1058.23 108.84 1043.33 108.60 C 1043.32 126.59 1043.32 144.58 1043.33 162.57 C 1051.77 162.30 1061.68 163.51 1068.55 157.54 C 1074.51 150.85 1073.92 141.13 1074.56 132.75 C 1082.42 132.75 1090.29 132.74 1098.17 132.76 C 1098.18 161.55 1098.17 190.35 1098.17 219.14 C 1090.29 219.16 1082.42 219.15 1074.55 219.14 C 1073.71 210.33 1074.38 200.48 1069.12 192.88 C 1062.54 185.90 1051.90 188.36 1043.34 187.87 C 1043.30 208.14 1043.33 228.41 1043.32 248.68 C 1058.59 248.38 1073.95 249.49 1089.14 247.61 C 1098.96 246.43 1109.21 242.36 1114.61 233.60 C 1121.69 222.14 1123.07 208.34 1124.85 195.26 C 1133.19 195.25 1141.53 195.26 1149.88 195.26 C 1149.88 221.31 1149.88 247.37 1149.88 273.43 C 1087.46 273.42 1025.04 273.43 962.61 273.42 C 962.61 265.18 962.61 256.93 962.62 248.68 C 968.92 248.61 975.27 248.93 981.55 248.18 C 984.20 247.80 987.19 247.03 988.73 244.62 C 990.31 242.04 990.34 238.90 990.47 235.97 C 990.44 197.66 990.45 159.35 990.46 121.04 C 990.47 116.90 989.82 111.42 985.18 109.98 C 977.85 107.90 970.12 108.83 962.61 108.60 C 962.62 100.35 962.60 92.10 962.62 83.85 Z"></path><path fill="#004786" opacity="1.00" d=" M 1168.86 83.85 C 1199.06 83.82 1229.26 83.87 1259.46 83.83 C 1283.67 127.94 1307.80 172.11 1331.93 216.27 C 1331.97 184.84 1331.93 153.42 1331.95 122.00 C 1331.84 118.67 1331.91 114.97 1329.85 112.16 C 1327.97 109.87 1324.84 109.34 1322.08 109.02 C 1316.01 108.36 1309.90 108.67 1303.82 108.60 C 1303.81 100.35 1303.80 92.10 1303.82 83.85 C 1332.61 83.84 1361.40 83.84 1390.20 83.85 C 1390.21 92.10 1390.19 100.35 1390.21 108.60 C 1383.83 108.68 1377.39 108.29 1371.09 109.43 C 1368.51 109.90 1365.86 111.29 1364.91 113.88 C 1363.44 117.74 1363.82 121.97 1363.77 126.02 C 1363.80 175.16 1363.78 224.29 1363.78 273.42 C 1344.55 273.42 1325.32 273.44 1306.08 273.41 C 1280.15 226.46 1254.23 179.50 1228.28 132.56 C 1228.28 167.38 1228.24 202.19 1228.30 237.00 C 1228.28 241.03 1229.29 246.19 1233.81 247.40 C 1241.15 249.40 1248.90 248.43 1256.42 248.68 C 1256.43 256.93 1256.42 265.18 1256.43 273.42 C 1227.24 273.42 1198.05 273.43 1168.86 273.42 C 1168.85 265.17 1168.85 256.93 1168.86 248.69 C 1174.84 248.62 1180.84 248.89 1186.80 248.27 C 1189.46 247.91 1192.43 247.38 1194.25 245.20 C 1196.29 242.62 1196.29 239.13 1196.43 236.01 C 1196.45 198.00 1196.43 160.00 1196.44 122.00 C 1196.33 118.98 1196.38 115.75 1194.90 113.01 C 1193.55 110.59 1190.71 109.61 1188.13 109.24 C 1181.75 108.28 1175.27 108.71 1168.85 108.59 C 1168.86 100.34 1168.84 92.10 1168.86 83.85 Z"></path><path fill="#004786" opacity="1.00" d=" M 1400.67 83.85 C 1462.04 83.84 1523.41 83.85 1584.78 83.84 C 1584.81 108.20 1584.78 132.56 1584.79 156.92 C 1576.26 156.93 1567.73 156.92 1559.20 156.93 C 1558.94 147.29 1558.19 137.43 1554.54 128.41 C 1552.14 122.41 1547.95 117.00 1542.24 113.84 C 1535.16 109.86 1526.84 109.09 1518.87 109.18 C 1518.88 149.11 1518.85 189.05 1518.89 228.99 C 1518.99 233.50 1518.72 238.10 1519.75 242.53 C 1520.46 245.89 1524.19 246.88 1527.09 247.56 C 1534.29 248.93 1541.67 248.89 1548.98 248.96 C 1549.12 257.11 1549.01 265.26 1549.04 273.41 C 1511.52 273.44 1474.00 273.41 1436.49 273.43 C 1436.48 265.27 1436.48 257.12 1436.49 248.97 C 1445.11 248.69 1454.08 249.22 1462.36 246.39 C 1466.80 244.83 1466.20 239.36 1466.49 235.57 C 1466.67 193.44 1466.52 151.31 1466.56 109.17 C 1455.61 108.90 1443.22 110.94 1435.90 119.94 C 1427.64 130.28 1426.67 144.21 1426.24 156.92 C 1417.71 156.93 1409.19 156.93 1400.67 156.92 C 1400.68 132.56 1400.66 108.21 1400.67 83.85 Z"></path><path fill="#004786" opacity="1.00" d=" M 1595.46 108.60 C 1595.46 100.35 1595.45 92.10 1595.47 83.85 C 1630.03 83.84 1664.60 83.84 1699.16 83.85 C 1699.18 92.10 1699.15 100.35 1699.18 108.60 C 1693.15 108.74 1686.90 108.19 1681.11 110.15 C 1676.75 111.73 1676.19 116.97 1676.18 120.96 C 1676.15 134.73 1676.18 148.50 1676.17 162.28 C 1696.61 162.28 1717.05 162.28 1737.50 162.28 C 1737.49 148.51 1737.50 134.74 1737.50 120.98 C 1737.43 117.05 1737.00 111.92 1732.78 110.24 C 1726.95 108.15 1720.59 108.75 1714.52 108.60 C 1714.52 100.35 1714.50 92.09 1714.53 83.84 C 1749.08 83.84 1783.64 83.84 1818.20 83.85 C 1818.21 92.10 1818.20 100.35 1818.21 108.60 C 1811.82 108.69 1805.40 108.31 1799.06 109.17 C 1796.36 109.54 1793.35 110.42 1791.94 112.96 C 1790.44 115.69 1790.43 118.92 1790.36 121.96 C 1790.41 160.32 1790.34 198.69 1790.40 237.05 C 1790.39 241.00 1791.31 246.05 1795.69 247.34 C 1802.99 249.41 1810.71 248.43 1818.20 248.68 C 1818.20 256.93 1818.20 265.17 1818.20 273.42 C 1783.64 273.43 1749.08 273.42 1714.52 273.42 C 1714.51 265.18 1714.51 256.93 1714.52 248.69 C 1720.67 248.48 1727.14 249.23 1733.02 246.97 C 1736.84 245.32 1737.41 240.68 1737.49 237.02 C 1737.52 220.64 1737.49 204.26 1737.49 187.88 C 1717.05 187.87 1696.62 187.88 1676.18 187.88 C 1676.14 203.59 1676.19 219.30 1676.15 235.01 C 1676.21 238.16 1676.16 241.53 1677.73 244.37 C 1679.14 246.84 1682.11 247.69 1684.75 248.11 C 1689.51 248.77 1694.35 248.66 1699.17 248.69 C 1699.17 256.93 1699.17 265.18 1699.17 273.42 C 1664.60 273.43 1630.03 273.42 1595.47 273.43 C 1595.45 265.18 1595.45 256.93 1595.46 248.68 C 1601.59 248.63 1607.74 248.90 1613.85 248.25 C 1616.69 247.88 1619.95 247.19 1621.62 244.59 C 1623.18 242.02 1623.19 238.89 1623.30 235.98 C 1623.29 197.65 1623.31 159.31 1623.29 120.97 C 1623.31 116.86 1622.63 111.40 1618.02 109.99 C 1610.70 107.89 1602.96 108.83 1595.46 108.60 Z"></path><path fill="#004786" opacity="1.00" d=" M 1853.71 228.66 C 1869.74 180.39 1885.74 132.11 1901.79 83.84 C 1920.53 83.85 1939.28 83.84 1958.02 83.85 C 1973.65 133.19 1989.18 182.56 2004.83 231.89 C 2006.84 237.37 2008.79 243.82 2014.32 246.77 C 2020.42 249.61 2027.37 248.38 2033.89 248.66 C 2033.89 256.91 2033.89 265.17 2033.89 273.43 C 1999.04 273.42 1964.19 273.42 1929.33 273.43 C 1929.32 265.17 1929.32 256.91 1929.33 248.66 C 1936.52 248.40 1944.00 249.46 1950.96 247.17 C 1954.52 246.24 1955.27 242.03 1954.13 238.98 C 1951.43 230.16 1948.53 221.41 1945.80 212.60 C 1927.63 212.60 1909.45 212.59 1891.28 212.60 C 1888.89 220.16 1886.53 227.72 1884.11 235.26 C 1883.28 238.07 1882.41 241.02 1882.89 243.97 C 1883.45 247.03 1886.89 247.88 1889.53 248.25 C 1895.48 248.95 1901.49 248.55 1907.49 248.66 C 1907.49 256.91 1907.48 265.17 1907.49 273.42 C 1879.82 273.43 1852.15 273.42 1824.48 273.42 C 1824.47 265.17 1824.47 256.91 1824.49 248.65 C 1831.24 248.53 1838.64 249.24 1844.74 245.75 C 1850.18 241.76 1851.47 234.62 1853.71 228.66 M 1911.93 149.94 C 1907.78 162.57 1903.67 175.22 1899.52 187.86 C 1912.38 187.86 1925.24 187.86 1938.11 187.86 C 1931.81 167.63 1925.12 147.51 1919.02 127.22 C 1917.25 134.95 1914.21 142.34 1911.93 149.94 Z"></path><path fill="#004786" opacity="1.00" d=" M 2040.79 83.85 C 2077.43 83.85 2114.08 83.82 2150.74 83.86 C 2150.76 92.11 2150.74 100.36 2150.74 108.61 C 2143.79 108.71 2136.79 108.24 2129.89 109.21 C 2127.26 109.58 2124.38 110.52 2123.03 112.98 C 2121.53 115.72 2121.53 118.95 2121.47 122.00 C 2121.49 164.22 2121.47 206.45 2121.48 248.68 C 2132.96 248.51 2144.47 249.15 2155.93 248.21 C 2163.90 247.46 2172.33 245.90 2178.72 240.70 C 2184.75 235.80 2187.74 228.27 2189.57 220.93 C 2191.58 212.80 2192.51 204.46 2193.33 196.13 C 2201.66 196.13 2210.01 196.13 2218.35 196.13 C 2218.35 221.90 2218.36 247.66 2218.35 273.42 C 2159.16 273.43 2099.97 273.42 2040.78 273.42 C 2040.77 265.17 2040.77 256.93 2040.78 248.68 C 2047.03 248.62 2053.31 248.92 2059.54 248.21 C 2062.43 247.83 2065.78 246.93 2067.22 244.10 C 2068.56 241.29 2068.57 238.09 2068.64 235.04 C 2068.63 197.36 2068.64 159.69 2068.63 122.01 C 2068.57 117.75 2068.44 111.99 2063.76 110.16 C 2056.36 107.78 2048.41 108.88 2040.77 108.60 C 2040.78 100.35 2040.76 92.10 2040.79 83.85 Z"></path><path fill="#ce1d00" opacity="1.00" d=" M 2.67 301.09 C 741.23 301.09 1479.79 301.09 2218.36 301.09 C 2218.35 310.74 2218.35 320.38 2218.35 330.03 C 1479.79 330.04 741.23 330.04 2.67 330.03 C 2.66 320.38 2.67 310.74 2.67 301.09 Z"></path><path fill="#004786" opacity="1.00" d=" M 1540.75 357.75 C 1547.63 351.86 1557.29 350.61 1566.01 351.71 C 1572.06 352.43 1577.33 355.76 1582.27 359.10 C 1583.59 357.26 1584.91 355.43 1586.23 353.59 C 1588.42 353.58 1590.63 353.58 1592.86 353.58 C 1592.86 363.09 1592.86 372.61 1592.86 382.13 C 1590.05 382.13 1587.25 382.13 1584.46 382.13 C 1582.88 375.30 1580.07 368.07 1573.87 364.17 C 1567.10 360.13 1558.04 358.98 1550.95 362.84 C 1546.32 365.28 1545.18 372.31 1548.97 375.97 C 1552.21 379.00 1556.80 379.70 1560.96 380.72 C 1570.49 383.06 1580.70 384.36 1588.89 390.21 C 1599.77 398.24 1599.19 416.48 1588.55 424.51 C 1581.46 430.27 1571.75 431.73 1562.91 430.49 C 1555.86 429.52 1549.65 425.76 1543.89 421.83 C 1543.06 424.13 1542.23 426.44 1541.42 428.76 C 1538.81 428.76 1536.21 428.76 1533.63 428.76 C 1533.62 418.44 1533.62 408.11 1533.62 397.78 C 1536.50 397.77 1539.39 397.77 1542.29 397.78 C 1543.60 403.89 1545.43 410.40 1550.42 414.58 C 1556.86 420.67 1566.55 421.85 1574.91 419.94 C 1579.08 419.07 1583.04 415.62 1582.85 411.07 C 1583.18 406.18 1579.01 402.59 1574.72 401.27 C 1564.95 398.10 1554.42 397.32 1545.09 392.81 C 1540.34 390.56 1535.98 386.83 1534.33 381.69 C 1531.71 373.39 1533.96 363.44 1540.75 357.75 Z"></path><path fill="#004786" opacity="1.00" d=" M 1704.35 359.38 C 1711.02 352.24 1721.57 350.54 1730.90 351.66 C 1737.12 352.28 1742.52 355.69 1747.59 359.09 C 1748.89 357.24 1750.23 355.40 1751.57 353.56 C 1753.75 353.57 1755.96 353.58 1758.19 353.59 C 1758.18 363.10 1758.19 372.61 1758.19 382.13 C 1755.36 382.13 1752.55 382.13 1749.76 382.13 C 1748.18 375.44 1745.50 368.36 1739.54 364.40 C 1733.04 360.31 1724.41 359.13 1717.29 362.26 C 1713.89 363.73 1711.52 367.36 1712.07 371.12 C 1712.16 375.05 1715.69 377.72 1719.15 378.83 C 1730.71 382.57 1743.65 382.92 1753.93 390.04 C 1763.83 397.09 1764.72 412.84 1756.75 421.69 C 1749.96 429.51 1738.78 431.87 1728.87 430.58 C 1721.56 429.76 1715.11 425.90 1709.18 421.83 C 1708.35 424.13 1707.52 426.44 1706.73 428.76 C 1704.11 428.76 1701.51 428.76 1698.93 428.76 C 1698.91 418.43 1698.92 408.11 1698.93 397.78 C 1701.80 397.77 1704.69 397.77 1707.59 397.79 C 1708.63 402.22 1709.65 406.83 1712.26 410.66 C 1716.22 416.45 1722.91 420.19 1729.91 420.61 C 1734.94 420.94 1740.51 420.83 1744.80 417.83 C 1749.24 414.69 1749.21 407.32 1745.00 404.00 C 1740.82 400.65 1735.32 400.00 1730.30 398.74 C 1721.72 396.69 1712.53 395.22 1705.37 389.70 C 1696.10 382.57 1696.72 367.48 1704.35 359.38 Z"></path><path fill="#004786" opacity="1.00" d=" M 1397.83 353.59 C 1410.83 353.58 1423.83 353.58 1436.84 353.58 C 1436.83 356.44 1436.82 359.31 1436.83 362.18 C 1433.58 362.23 1430.27 361.88 1427.09 362.60 C 1424.74 363.24 1424.76 366.05 1424.67 368.00 C 1424.61 380.66 1424.62 393.32 1424.66 405.98 C 1424.64 409.96 1425.33 414.58 1428.99 416.91 C 1435.58 421.27 1444.98 420.91 1451.41 416.39 C 1455.03 413.89 1455.65 409.16 1455.61 405.09 C 1455.54 392.10 1455.75 379.11 1455.51 366.13 C 1455.04 360.38 1447.65 362.61 1443.80 362.17 C 1443.79 359.31 1443.79 356.44 1443.81 353.58 C 1455.40 353.58 1466.99 353.58 1478.58 353.58 C 1478.57 356.44 1478.57 359.30 1478.58 362.16 C 1475.04 362.50 1468.34 360.71 1467.95 365.99 C 1467.51 379.66 1467.98 393.36 1467.72 407.03 C 1467.48 413.86 1464.92 421.07 1459.16 425.16 C 1451.62 430.54 1441.83 431.59 1432.84 430.72 C 1424.96 429.88 1416.72 426.54 1412.26 419.69 C 1408.38 413.53 1408.85 405.94 1408.85 398.97 C 1408.85 388.61 1408.86 378.25 1408.86 367.90 C 1408.82 366.00 1408.79 363.31 1406.58 362.65 C 1403.72 361.91 1400.73 362.21 1397.83 362.16 C 1397.82 359.30 1397.81 356.44 1397.83 353.59 Z"></path><path fill="#004786" opacity="1.00" d=" M 1777.44 353.58 C 1802.04 353.58 1826.63 353.57 1851.23 353.59 C 1851.23 363.55 1851.23 373.51 1851.23 383.47 C 1848.36 383.48 1845.50 383.48 1842.66 383.48 C 1842.27 378.09 1842.32 372.29 1839.41 367.53 C 1836.82 363.40 1831.58 362.43 1827.08 362.26 C 1819.70 362.05 1812.31 362.23 1804.94 362.17 C 1804.93 369.87 1804.92 377.57 1804.94 385.27 C 1809.13 385.06 1813.76 385.86 1817.60 383.74 C 1821.00 380.77 1820.40 375.68 1821.18 371.65 C 1824.02 371.65 1826.86 371.66 1829.73 371.66 C 1829.74 384.16 1829.73 396.65 1829.73 409.15 C 1826.86 409.15 1824.01 409.15 1821.17 409.15 C 1820.54 404.72 1820.94 399.65 1818.05 395.94 C 1814.50 392.75 1809.25 394.16 1804.93 393.86 C 1804.93 402.63 1804.93 411.40 1804.93 420.17 C 1812.29 420.14 1819.65 420.25 1827.01 420.12 C 1831.15 420.06 1835.89 419.06 1838.32 415.33 C 1841.76 409.85 1841.89 403.12 1842.66 396.88 C 1845.50 396.87 1848.36 396.88 1851.24 396.88 C 1851.23 407.51 1851.24 418.13 1851.23 428.76 C 1826.63 428.76 1802.03 428.77 1777.44 428.76 C 1777.43 425.89 1777.42 423.03 1777.43 420.17 C 1781.28 419.77 1788.73 421.96 1789.01 416.12 C 1789.31 402.41 1789.04 388.69 1789.14 374.99 C 1788.91 371.25 1789.77 367.23 1788.28 363.70 C 1785.41 361.08 1780.94 362.57 1777.44 362.17 C 1777.42 359.30 1777.42 356.44 1777.44 353.58 Z"></path><path fill="#004786" opacity="1.00" d=" M 1870.07 353.58 C 1880.71 353.58 1891.35 353.57 1901.99 353.59 C 1913.05 371.76 1924.13 389.91 1935.21 408.08 C 1935.22 394.72 1935.22 381.37 1935.21 368.01 C 1935.18 365.99 1935.07 363.09 1932.63 362.56 C 1929.32 361.89 1925.92 362.23 1922.59 362.17 C 1922.58 359.31 1922.58 356.45 1922.60 353.59 C 1934.44 353.58 1946.28 353.57 1958.12 353.59 C 1958.11 356.44 1958.11 359.30 1958.12 362.17 C 1955.01 362.27 1951.76 361.78 1948.81 362.86 C 1947.00 363.88 1947.15 366.18 1947.08 367.95 C 1947.07 388.21 1947.08 408.48 1947.07 428.74 C 1941.76 428.79 1936.46 428.75 1931.17 428.77 C 1918.74 408.41 1906.44 387.98 1893.97 367.64 C 1894.00 383.09 1893.91 398.54 1894.01 413.99 C 1894.15 415.97 1893.90 418.88 1896.25 419.69 C 1899.59 420.54 1903.10 420.07 1906.53 420.18 C 1906.52 423.03 1906.51 425.89 1906.53 428.76 C 1894.20 428.77 1881.86 428.77 1869.54 428.76 C 1869.52 425.89 1869.52 423.03 1869.53 420.18 C 1872.94 420.07 1876.43 420.53 1879.80 419.73 C 1882.28 419.09 1882.06 415.99 1882.18 413.97 C 1882.16 398.64 1882.18 383.31 1882.17 367.98 C 1882.14 365.97 1882.02 363.09 1879.60 362.55 C 1876.45 361.92 1873.23 362.21 1870.07 362.17 C 1870.06 359.31 1870.05 356.44 1870.07 353.58 Z"></path><path fill="#004786" opacity="1.00" d=" M 1978.42 413.20 C 1985.41 393.31 1992.42 373.43 1999.47 353.57 C 2004.74 353.59 2010.02 353.58 2015.31 353.58 C 2022.86 373.72 2030.46 393.83 2037.99 413.98 C 2038.87 416.16 2039.76 418.86 2042.24 419.69 C 2044.38 420.30 2046.65 420.13 2048.89 420.21 C 2048.87 423.06 2048.86 425.91 2048.88 428.77 C 2035.96 428.76 2023.04 428.76 2010.13 428.77 C 2010.11 425.90 2010.11 423.03 2010.13 420.17 C 2014.05 419.79 2018.68 421.20 2022.13 418.89 C 2022.60 414.01 2019.44 409.53 2018.23 404.87 C 2010.00 404.85 2001.77 404.91 1993.55 404.84 C 1992.30 409.57 1988.73 414.30 1989.71 419.24 C 1993.22 420.90 1997.37 419.90 2001.16 420.18 C 2001.14 423.03 2001.15 425.90 2001.16 428.76 C 1989.50 428.77 1977.84 428.76 1966.19 428.76 C 1966.17 425.91 1966.17 423.07 1966.18 420.22 C 1968.86 420.09 1971.73 420.37 1974.23 419.13 C 1976.51 417.97 1977.58 415.48 1978.42 413.20 M 1996.53 396.10 C 2002.69 396.11 2008.86 396.11 2015.04 396.10 C 2011.89 387.36 2008.63 378.67 2005.36 369.98 C 2002.51 378.72 1999.44 387.39 1996.53 396.10 Z"></path><path fill="#004786" opacity="1.00" d=" M 2056.47 384.71 C 2056.47 374.33 2056.45 363.96 2056.47 353.58 C 2080.01 353.59 2103.55 353.57 2127.09 353.59 C 2127.09 363.96 2127.09 374.33 2127.09 384.71 C 2124.22 384.72 2121.37 384.72 2118.53 384.71 C 2118.21 378.42 2118.02 371.34 2113.63 366.35 C 2110.11 362.43 2104.51 362.06 2099.62 361.84 C 2099.58 379.22 2099.61 396.61 2099.60 414.00 C 2099.64 416.04 2099.53 419.13 2102.05 419.76 C 2105.83 420.54 2109.73 420.05 2113.59 420.18 C 2113.57 423.03 2113.56 425.89 2113.58 428.76 C 2099.05 428.76 2084.52 428.78 2069.99 428.75 C 2069.96 425.90 2069.94 423.04 2069.97 420.19 C 2073.84 420.01 2077.85 420.62 2081.66 419.66 C 2083.89 418.82 2083.68 416.00 2083.82 414.06 C 2083.82 396.66 2083.86 379.25 2083.80 361.84 C 2078.99 362.01 2073.59 362.40 2070.11 366.15 C 2065.55 371.13 2065.36 378.34 2065.01 384.71 C 2062.15 384.72 2059.30 384.71 2056.47 384.71 Z"></path><path fill="#004786" opacity="1.00" d=" M 2143.52 353.58 C 2168.11 353.58 2192.71 353.57 2217.30 353.59 C 2217.30 363.55 2217.30 373.51 2217.30 383.47 C 2214.44 383.48 2211.59 383.48 2208.76 383.48 C 2208.32 377.88 2208.42 371.75 2205.09 366.96 C 2201.83 362.64 2195.94 362.28 2191.00 362.19 C 2184.34 362.14 2177.68 362.19 2171.03 362.17 C 2171.02 369.87 2171.01 377.57 2171.03 385.27 C 2175.22 385.06 2179.89 385.87 2183.71 383.71 C 2187.07 380.74 2186.50 375.68 2187.27 371.65 C 2190.09 371.65 2192.94 371.65 2195.80 371.66 C 2195.80 384.15 2195.80 396.65 2195.80 409.15 C 2192.94 409.15 2190.09 409.15 2187.26 409.15 C 2186.63 404.72 2187.01 399.64 2184.12 395.93 C 2180.57 392.75 2175.33 394.15 2171.02 393.86 C 2171.02 402.63 2171.02 411.40 2171.02 420.17 C 2178.69 420.11 2186.36 420.31 2194.03 420.07 C 2198.13 419.97 2202.68 418.54 2204.80 414.72 C 2207.81 409.29 2208.02 402.91 2208.74 396.88 C 2211.58 396.87 2214.43 396.87 2217.31 396.88 C 2217.30 407.51 2217.31 418.13 2217.30 428.76 C 2192.71 428.76 2168.11 428.77 2143.52 428.76 C 2143.51 425.89 2143.50 423.03 2143.52 420.17 C 2147.40 419.78 2154.89 421.95 2155.11 416.02 C 2155.35 400.35 2155.13 384.66 2155.22 368.98 C 2155.03 366.88 2155.47 363.96 2153.27 362.79 C 2150.14 361.75 2146.74 362.29 2143.52 362.17 C 2143.51 359.30 2143.50 356.44 2143.52 353.58 Z"></path><path fill="#004786" opacity="1.00" d=" M 1498.41 414.50 C 1504.20 412.09 1510.95 417.80 1509.49 423.92 C 1508.63 429.93 1500.63 432.81 1496.08 428.83 C 1491.11 425.14 1492.41 416.37 1498.41 414.50 Z"></path><path fill="#004786" opacity="1.00" d=" M 1623.30 414.41 C 1629.12 412.20 1635.69 418.02 1634.13 424.06 C 1633.15 430.16 1624.80 432.88 1620.41 428.53 C 1615.63 424.62 1617.36 416.12 1623.30 414.41 Z"></path></svg>